<svg width="249" height="72" viewBox="0 0 249 72" fill="none" xmlns="http://www.w3.org/2000/svg">
<circle cx="36.3334" cy="36" r="35.5" stroke="white"></circle>
<path d="M49.3201 34.76C49.2534 34.08 48.6801 33.5733 48.0001 33.5733H37.9334C37.2001 33.5733 36.6001 34.1733 36.6001 34.9066V37.1867C36.6001 37.92 37.2001 38.52 37.9334 38.52H43.9467C43.8001 39.7467 43.0001 41.6 41.2267 42.84C40.0934 43.6267 38.5867 44.1733 36.6001 44.1733C36.5067 44.1733 36.4267 44.1733 36.3334 44.16C32.9334 44.0533 30.0534 41.7733 29.0134 38.64C28.7334 37.8 28.5734 36.92 28.5734 36C28.5734 35.08 28.7334 34.1866 29.0001 33.36C29.0801 33.12 29.1734 32.88 29.2801 32.64C30.5067 29.88 33.1867 27.9333 36.3334 27.84C36.4134 27.8267 36.5067 27.8267 36.6001 27.8267C38.5067 27.8267 39.9334 28.4533 40.9334 29.1466C41.4534 29.5066 42.1467 29.4266 42.6001 28.9866L44.4534 27.1733C45.0401 26.6 44.9867 25.6266 44.3201 25.1466C42.2001 23.5866 39.6134 22.6667 36.6001 22.6667C36.5067 22.6667 36.4267 22.6667 36.3334 22.68C31.2267 22.7733 26.8401 25.7333 24.6934 30.0133C23.7867 31.8267 23.2667 33.8533 23.2667 36C23.2667 38.1467 23.7867 40.1733 24.6934 41.9866H24.7067C26.8534 46.2666 31.2401 49.2266 36.3334 49.32C36.4267 49.3333 36.5067 49.3333 36.6001 49.3333C40.2001 49.3333 43.2267 48.1466 45.4267 46.1066C47.9467 43.7733 49.4001 40.36 49.4001 36.2933C49.4001 35.72 49.3734 35.2267 49.3201 34.76Z" fill="white"></path>
<circle cx="124.333" cy="36" r="35.5" stroke="white"></circle>
<path d="M137.667 41.5867C137.667 46.44 134.773 49.3333 129.92 49.3333H128.333C127.6 49.3333 127 48.7333 127 48V40.3067C127 39.9467 127.293 39.64 127.653 39.64L130 39.6C130.187 39.5867 130.347 39.4533 130.387 39.2667L130.853 36.72C130.893 36.48 130.707 36.2533 130.453 36.2533L127.613 36.2933C127.24 36.2933 126.947 36 126.933 35.64L126.88 32.3733C126.88 32.16 127.053 31.9733 127.28 31.9733L130.48 31.92C130.707 31.92 130.88 31.7467 130.88 31.52L130.827 28.32C130.827 28.0933 130.653 27.92 130.427 27.92L126.827 27.9733C124.613 28.0133 122.853 29.8267 122.893 32.04L122.96 35.7067C122.973 36.08 122.68 36.3733 122.307 36.3867L120.707 36.4133C120.48 36.4133 120.307 36.5866 120.307 36.8133L120.347 39.3467C120.347 39.5733 120.52 39.7467 120.747 39.7467L122.347 39.72C122.72 39.72 123.013 40.0133 123.027 40.3733L123.147 47.9733C123.16 48.72 122.56 49.3333 121.813 49.3333H118.747C113.893 49.3333 111 46.44 111 41.5733V30.4133C111 25.56 113.893 22.6667 118.747 22.6667H129.92C134.773 22.6667 137.667 25.56 137.667 30.4133V41.5867V41.5867Z" fill="white"></path>
<circle cx="212.333" cy="36" r="35.5" stroke="white"></circle>
<path fill-rule="evenodd" clip-rule="evenodd" d="M221.8 45.5467C222.587 44.3467 222.88 43.7333 223.48 42.3867C219.053 40.7067 218.347 34.4 222.72 31.9866C221.387 30.3066 219.507 29.3333 217.733 29.3333C216.453 29.3333 215.573 29.6667 214.787 29.9733C214.12 30.2267 213.52 30.4533 212.773 30.4533C211.973 30.4533 211.267 30.2 210.52 29.9333C209.707 29.64 208.853 29.3333 207.787 29.3333C205.8 29.3333 203.68 30.5466 202.333 32.6266C200.44 35.56 200.773 41.0533 203.827 45.7466C204.92 47.4266 206.387 49.3066 208.293 49.3333C209.093 49.3466 209.613 49.1067 210.187 48.8533C210.84 48.56 211.547 48.24 212.787 48.24C214.027 48.2266 214.72 48.56 215.373 48.8533C215.933 49.1067 216.44 49.3466 217.227 49.3333C219.16 49.3066 220.707 47.2267 221.8 45.5467Z" fill="white"></path>
<path fill-rule="evenodd" clip-rule="evenodd" d="M217.453 22.6667C217.667 24.1333 217.067 25.5867 216.28 26.6C215.44 27.6933 213.973 28.5466 212.56 28.4933C212.307 27.08 212.96 25.6266 213.76 24.6533C214.653 23.5866 216.16 22.76 217.453 22.6667Z" fill="white"></path>
</svg>
