<svg width="32" height="33" viewBox="0 0 32 33" fill="none" xmlns="http://www.w3.org/2000/svg">
<path d="M8 14V11.3333C8 6.91999 9.33333 3.33333 16 3.33333C22.6667 3.33333 24 6.91999 24 11.3333V14" stroke="white" stroke-width="1.5" stroke-linecap="round" stroke-linejoin="round"></path>
<path d="M16 25.3333C17.8409 25.3333 19.3333 23.8409 19.3333 22C19.3333 20.159 17.8409 18.6667 16 18.6667C14.159 18.6667 12.6666 20.159 12.6666 22C12.6666 23.8409 14.159 25.3333 16 25.3333Z" stroke="white" stroke-width="1.5" stroke-linecap="round" stroke-linejoin="round"></path>
<path d="M22.6666 30H9.33329C3.99996 30 2.66663 28.6667 2.66663 23.3333V20.6667C2.66663 15.3333 3.99996 14 9.33329 14H22.6666C28 14 29.3333 15.3333 29.3333 20.6667V23.3333C29.3333 28.6667 28 30 22.6666 30Z" stroke="white" stroke-width="1.5" stroke-linecap="round" stroke-linejoin="round"></path>
</svg>
